<svg xmlns="http://www.w3.org/2000/svg" width="24" height="25" viewBox="0 0 24 25" fill="none"><path fill-rule="evenodd" clip-rule="evenodd" d="M6.94217 2.58337C3.99051 2.58337 2.08301 4.60521 2.08301 7.73537V17.2647C2.08301 20.3949 3.99051 22.4167 6.94217 22.4167H17.0548C20.0077 22.4167 21.9163 20.3949 21.9163 17.2647V7.73537C21.9163 4.60521 20.0077 2.58337 17.056 2.58337H6.94217ZM17.0548 24.1667H6.94217C2.98834 24.1667 0.333008 21.3924 0.333008 17.2647V7.73537C0.333008 3.60771 2.98834 0.833374 6.94217 0.833374H17.056C21.0098 0.833374 23.6663 3.60771 23.6663 7.73537V17.2647C23.6663 21.3924 21.0098 24.1667 17.0548 24.1667Z" fill="#285BD4"></path><path fill-rule="evenodd" clip-rule="evenodd" d="M10.6151 16.1435C10.3922 16.1435 10.1671 16.0584 9.99674 15.8869L7.22708 13.1184C6.88524 12.7765 6.88524 12.2235 7.22708 11.8817C7.56891 11.5399 8.12191 11.5399 8.46374 11.8817L10.6151 14.0307L15.5337 9.11319C15.8756 8.77135 16.4286 8.77135 16.7704 9.11319C17.1122 9.45502 17.1122 10.008 16.7704 10.3499L11.2334 15.8869C11.0631 16.0584 10.8391 16.1435 10.6151 16.1435Z" fill="#285BD4"></path></svg>