<svg width="47" height="14" viewBox="0 0 47 14" fill="none" xmlns="http://www.w3.org/2000/svg">
<g clip-path="url(#clip0_170_6703)">
<mask id="mask0_170_6703" style="mask-type:luminance" maskUnits="userSpaceOnUse" x="0" y="-1" width="47" height="16">
<path d="M46.4862 -0.619141H0.0773468V14.8505H46.4862V-0.619141Z" fill="white"/>
</mask>
<g mask="url(#mask0_170_6703)">
<path d="M17.6508 13.8144C19.2519 13.8144 20.4276 12.8631 20.4276 11.5559C20.4276 10.9603 20.1801 10.4266 19.7315 10.0708C19.3834 9.80781 18.7569 9.49068 17.9912 9.21996C17.5039 9.04206 17.3105 8.8719 17.3105 8.68626C17.3105 8.49289 17.4884 8.35366 17.7436 8.35366C17.9138 8.35366 18.1459 8.40781 18.3392 8.49289L18.5171 8.5625L18.8807 8.72493C19.074 8.79455 19.2442 8.83322 19.3834 8.84869C19.832 8.87963 20.2575 8.42328 20.2575 7.92825C20.2575 7.13156 19.2287 6.52051 17.8906 6.52051C16.3591 6.52051 15.2376 7.4719 15.2376 8.76361C15.2376 9.35919 15.4309 9.83875 15.8099 10.1713C16.1271 10.4343 16.7845 10.736 17.7669 11.0686C18.2 11.2233 18.3624 11.3548 18.3624 11.5636C18.3624 11.8266 18.1691 11.9736 17.821 11.9736C17.5967 11.9736 17.3182 11.9039 17.1094 11.7957L16.7768 11.6332L16.5989 11.5404C16.3591 11.4166 16.1503 11.3625 15.9569 11.3625C15.4851 11.3625 15.0365 11.8189 15.0365 12.2984C15.0519 13.0564 16.3282 13.8144 17.6508 13.8144ZM22.8796 13.7294C23.5215 13.7294 23.9238 13.2885 23.9238 12.5846V8.67079H24.4265C25.1613 8.67079 25.5635 8.33819 25.5635 7.70394C25.5635 7.04648 25.1845 6.72935 24.4265 6.72935H23.9238V5.44538C23.9238 4.74151 23.5215 4.30063 22.8796 4.30063C22.2298 4.30063 21.8354 4.74151 21.8354 5.44538V6.72935H21.6807C20.9304 6.72935 20.5514 7.04648 20.5514 7.70394C20.5514 8.35366 20.9304 8.67079 21.6807 8.67079H21.8354V12.5846C21.8354 13.2885 22.2376 13.7294 22.8796 13.7294ZM26.9635 13.7448C27.5901 13.7448 27.9923 13.3039 27.9923 12.6001V9.93156C27.9923 9.72272 28.0309 9.50615 28.116 9.32825C28.2166 9.09621 28.3635 8.97245 28.7657 8.83322C30.158 8.29952 29.7945 8.43101 29.8796 8.40781C30.2586 8.24538 30.4055 7.98239 30.4055 7.55698C30.4055 7.02328 29.9182 6.55146 29.3768 6.55146C28.8895 6.55146 28.4486 6.7835 27.9149 7.33267C27.6906 6.7835 27.4431 6.59013 26.9558 6.59013C26.3061 6.59013 25.8961 7.01554 25.8961 7.73488V12.6078C25.9116 13.3039 26.3138 13.7448 26.9635 13.7448ZM31.7901 6.10284C32.5094 6.10284 33.0122 5.60781 33.0122 4.90394C33.0122 4.20007 32.5017 3.68958 31.8055 3.68958C31.0939 3.68958 30.5834 4.20007 30.5834 4.88847C30.5834 5.59234 31.0939 6.10284 31.7901 6.10284ZM31.8055 13.7139C32.432 13.7139 32.8343 13.273 32.8343 12.5691V7.73488C32.8343 7.03101 32.432 6.59013 31.8055 6.59013C31.1558 6.59013 30.7459 7.01554 30.7459 7.73488V12.5691C30.7459 13.2885 31.1403 13.7216 31.8055 13.7139ZM38.821 13.7294C39.3934 13.7294 39.8343 13.3039 39.8343 12.7548C39.8343 12.399 39.7492 12.2443 39.1381 11.5017L39.0144 11.347L37.6685 9.65311L38.6431 8.66306C39.3083 7.95919 39.1304 8.15256 39.2 8.06748C39.3934 7.8509 39.4398 7.73488 39.4398 7.53377C39.4398 7.00781 39.0066 6.52825 38.5193 6.52825C38.1326 6.52825 37.8387 6.69068 37.3204 7.24759L37.042 7.54924L35.7193 8.92604V4.79565C35.7193 4.09179 35.3171 3.6509 34.6751 3.6509C34.2884 3.6509 33.9403 3.84427 33.7547 4.14593C33.6541 4.32383 33.6309 4.44759 33.6309 4.79565V12.5923C33.6309 13.3117 34.0177 13.7371 34.6751 13.7371C35.3249 13.7371 35.7193 13.2962 35.7193 12.5923V10.4421L37.0652 12.1747L37.3127 12.5073C38.0553 13.4818 38.3492 13.7294 38.821 13.7294ZM43.2917 13.799C44.0807 13.799 44.8464 13.6056 45.5271 13.2343C46.084 12.9172 46.3624 12.5614 46.3624 12.1592C46.3624 11.6796 45.9757 11.2465 45.5116 11.2465C45.3724 11.2465 45.1635 11.3006 44.9702 11.4012L44.8155 11.4708L44.6762 11.5404L44.5215 11.6255L44.3436 11.7106C43.9569 11.8653 43.7326 11.9194 43.3845 11.9194C42.6188 11.9194 42.116 11.5481 41.9381 10.8597H45.6199C46.2464 10.8597 46.4785 10.6122 46.4785 9.97797C46.4785 9.34372 46.3006 8.69399 45.9757 8.14482C45.3492 7.10062 44.3668 6.53598 43.1293 6.53598C41.0564 6.53598 39.6409 8.07521 39.6409 10.3338C39.6486 12.3835 41.1492 13.799 43.2917 13.799ZM6.20332 0.355874L12.0895 2.49842C12.1127 2.50615 12.1359 2.51388 12.1591 2.52935C12.2133 2.54482 12.2674 2.56029 12.3138 2.5835C14.1856 3.26416 15.1602 5.32162 14.4873 7.17024C13.8144 9.01886 11.7492 9.97024 9.86961 9.28958L3.75912 7.06969C3.38785 6.93046 3.18674 6.52051 3.32597 6.14924C3.45746 5.77797 3.87514 5.59234 4.24641 5.72383L7.64199 6.9614C7.48729 6.45864 7.44088 5.92493 7.51823 5.39897L0.549171 2.86195C0.1779 2.72272 -0.0232044 2.31278 0.116022 1.94151C0.247514 1.57024 0.665194 1.3846 1.03646 1.5161L8.00553 4.05311C8.28398 3.60449 8.65525 3.21775 9.10387 2.93156L5.70829 1.69399C5.33702 1.55477 5.13591 1.14482 5.27514 0.773553C5.4221 0.410018 5.83204 0.216648 6.20332 0.355874ZM43.1602 8.22217C43.8564 8.22217 44.2895 8.62438 44.4133 9.42107H41.8298C42.0387 8.63985 42.495 8.22217 43.1602 8.22217ZM9.07293 5.19786C8.66298 6.31168 9.25083 7.54924 10.3801 7.95919C11.5094 8.36913 12.747 7.79676 13.1569 6.68295C13.5591 5.56913 12.979 4.33156 11.8497 3.92162C10.7282 3.50394 9.48287 4.07632 9.07293 5.19786Z" fill="black"/>
</g>
</g>
<defs>
<clipPath id="clip0_170_6703">
<rect width="46.6409" height="14" fill="white"/>
</clipPath>
</defs>
</svg>
